<?xml version="1.0" encoding="utf-8"?>
<!-- Generator: Adobe Illustrator 17.0.0, SVG Export Plug-In . SVG Version: 6.00 Build 0)  -->
<!DOCTYPE svg PUBLIC "-//W3C//DTD SVG 1.1//EN" "http://www.w3.org/Graphics/SVG/1.1/DTD/svg11.dtd">
<svg version="1.1" id="Capa_1" xmlns="http://www.w3.org/2000/svg" xmlns:xlink="http://www.w3.org/1999/xlink" x="0px" y="0px"
	 width="908.277px" height="478.326px" viewBox="0 0 908.277 478.326" enable-background="new 0 0 908.277 478.326"
	 xml:space="preserve">
<g>
	<path fill="#757006" d="M233.837,286.908c0,27.615-10.242,48.826-30.719,63.636c-18.104,12.988-41.601,19.473-70.493,19.473
		c-40.414,0-69.852-15.721-88.321-47.176c-8.597-14.263-12.891-29.804-12.891-46.631V102.944
		c31.333-6.337,57.421,13.86,57.421,13.86s27.513-11.73,43.79-11.73c29.076,0,52.571,6.493,70.493,19.475
		c20.477,14.631,30.719,35.841,30.719,63.635c0,18.287-7.498,37.176-22.489,50.889c-1.465,1.281-2.196,2.564-2.196,3.839
		c0.181,0.733,0.914,2.014,2.196,3.842C226.339,261.017,233.837,268.628,233.837,286.908z M173.768,286.908
		c0.872-23.296-23.004-26.625-23.004-26.625c-27.214-4.697-35.306-24.074-35.026-41.046h40.081
		c20.943-1.323,18.303-24.358,17.949-31.055c-1.042-19.721-13.761-29.623-41.278-29.623c-11.563,0-21.289,3.887-29.173,11.658
		c-7.89,7.775-11.834,17.328-11.834,28.663v77.331c0,11.521,3.944,21.169,11.834,28.938c7.885,7.775,17.61,11.656,29.173,11.656
		C160.007,316.805,173.023,306.83,173.768,286.908z"/>
	<path fill="#757006" d="M446.949,332.439c-19.75,25.056-46.174,37.579-79.27,37.579c-40.23,0-69.577-15.721-88.046-47.176
		c-8.595-14.263-12.891-29.804-12.891-46.631V114.679v-5.242c0,0,46.753-4.183,60.071,27.834v138.94
		c0,11.521,3.93,21.169,11.793,28.938c7.861,7.775,17.553,11.656,29.073,11.656c11.521,0,22.767-5.664,33.738-17.005
		c0,0,38.611-7.408,58.671,17.027L446.949,332.439z"/>
	<path fill="#757006" d="M680.572,360.855c0,8.229,0,13.008,0,13.008s-31.561,6.037-52.389-16.734c-1.334-1.461,4.206,0,0,0
		c-15.727,8.593-31.998,12.889-48.823,12.889c-40.414,0-69.851-15.721-88.32-47.176c-8.596-14.263-12.889-29.804-12.889-46.631
		V117.4v-7.962c0,0,50.552-4.382,60.068,31.072v135.701c0,11.521,3.944,21.169,11.834,28.938
		c7.885,7.775,17.612,11.656,29.172,11.656c11.741,0,21.558-3.836,29.445-11.518c7.888-7.682,11.834-17.369,11.834-29.076V117.4
		l0.11-7.962c0,0,51.562-4.382,59.958,28.183V360.855z"/>
	<path fill="#757006" d="M908.277,276.211c0,36.207-7.549,63.182-39.979,80.918c-15.572,8.593-33.164,12.889-52.764,12.889
		c-10.996,0-22.264-1.645-33.801-4.937c-4.768,0-7.148,1.647-7.148,4.937v81.705c-18.156,32.915-54.293,25.998-54.293,25.998
		V201.769c0-36.021,10.409-62.991,42.772-80.915c15.538-8.593,33.096-12.892,52.662-12.892c40.6,0,92.551,24.254,92.551,93.807
		V276.211z M856.873,276.211v-74.442c0-11.7-3.949-21.346-11.831-28.936c-7.888-7.585-17.71-11.384-29.446-11.384
		c-11.566,0-21.293,3.887-29.175,11.658c-7.893,7.775-11.837,17.328-11.837,28.663v74.442c0,11.521,3.944,21.169,11.837,28.938
		c7.882,7.775,17.609,11.656,29.175,11.656c11.735,0,21.558-3.836,29.446-11.518C852.923,297.605,856.873,287.918,856.873,276.211z"
		/>
	<g>
		<path fill="#757006" d="M109.087,433.273c0-8.288-5.302-15.801-16.221-15.801c-14.765,0-19.651,11.484-19.651,28.834
			c0,16.573,4.055,29.003,19.028,29.003c14.349,0,17.781-13.984,17.781-18.816h4.367c0,7.253-4.367,21.753-22.875,21.753
			c-16.116,0-22.668-11.825-22.668-31.767c0-19.338,6.552-31.942,23.812-31.942c17.365,0,20.796,12.689,20.796,18.737H109.087z"/>
		<path fill="#757006" d="M138.728,478.245c-14.349,0-17.885-10.618-17.885-23.651c0-12.948,3.536-23.57,18.508-23.57
			c14.349,0,17.885,10.621,17.885,23.57C157.237,467.627,153.701,478.245,138.728,478.245z M139.04,433.961
			c-10.398,0-13.829,7.685-13.829,20.717c0,12.948,3.43,20.63,13.829,20.63s13.83-7.682,13.83-20.63
			C152.87,441.646,149.438,433.961,139.04,433.961z"/>
		<path fill="#757006" d="M189.788,444.754v-1.298c0-4.057-1.248-9.495-10.191-9.495c-5.718,0-10.501,2.418-10.501,8.373
			c0,4.748,2.703,7.165,8.11,8.892l8.318,2.59c6.55,2.074,9.878,5.873,9.878,12.001c0,7.594-7.07,12.429-15.7,12.429
			c-15.077,0-16.116-8.976-16.116-14.24v-1.213h3.951v1.467c0,6.392,3.119,11.05,12.165,11.05c8.006,0,11.333-4.401,11.333-9.408
			c0-4.316-2.079-7.25-8.11-9.236l-8.006-2.674c-6.759-2.245-10.191-5.526-10.191-11.312c0-7.509,6.24-11.654,14.87-11.654
			c12.062,0,14.142,6.821,14.142,12.345v1.385H189.788z"/>
		<path fill="#757006" d="M203.726,432.063h3.951v6.734h0.209c1.559-4.663,6.343-7.772,13.101-7.772
			c8.422,0,11.022,4.316,11.751,8.46h0.207c0.728-3.278,4.783-8.46,13.31-8.46c8.631,0,12.998,4.316,12.998,11.484v34.701h-3.952
			v-33.928c0-6.043-3.742-9.321-9.357-9.321c-8.111,0-12.477,5.523-12.477,13.293v29.956h-3.952v-32.371
			c0-6.734-2.703-10.878-9.566-10.878c-8.526,0-12.27,6.215-12.27,13.293v29.956h-3.951V432.063z"/>
		<path fill="#757006" d="M273.503,454.419c0,7.253,0.104,20.889,12.79,20.889c11.438,0,13.309-9.493,13.309-12.861h3.951
			c0,6.906-4.574,15.797-16.844,15.797c-14.037,0-17.573-9.495-17.573-24.861c0-13.815,5.927-22.359,18.197-22.359
			c12.789,0,16.949,8.804,16.949,23.395H273.503z M299.914,451.485c0-8.203-1.56-17.524-12.789-17.524
			c-12.063,0-13.623,11.651-13.623,17.524H299.914z M291.076,413.673h4.99l-9.669,12.085h-3.432L291.076,413.673z"/>
		<path fill="#757006" d="M308.342,432.063h7.383v-13.38h3.951v13.38h9.047v2.937h-9.047v34.789c0,4.316,2.495,5.004,4.783,5.004
			c1.664,0,3.12-0.085,4.887-0.516v2.934c-1.976,0.344-4.055,0.519-5.615,0.519c-5.615,0-8.006-2.677-8.006-7.597v-35.133h-7.383
			V432.063z"/>
		<path fill="#757006" d="M334.444,415.574h3.951v8.804h-3.951V415.574z M334.444,432.063h3.951v45.147h-3.951V432.063z"/>
		<path fill="#757006" d="M382.483,462.448c0,4.231-2.807,15.797-16.844,15.797c-14.037,0-17.573-10.274-17.573-23.826
			c0-14.935,5.511-23.395,18.301-23.395c13.205,0,15.805,10.706,15.805,13.984h-4.367c0-2.759-2.183-11.047-11.542-11.047
			c-10.087,0-13.83,7.685-13.83,20.633c0,14.071,3.743,20.715,13.83,20.715c9.982,0,11.854-9.493,11.854-12.861H382.483z"/>
		<path fill="#757006" d="M419.089,471.774c0,2.155,1.04,3.018,2.391,3.018c0.937,0,1.767-0.085,2.495-0.429v2.587
			c-0.831,0.519-2.391,0.779-4.158,0.779c-1.664,0-4.68-1.382-4.68-4.923v-2.847h-0.207c-1.56,4.66-6.966,8.285-14.246,8.285
			c-9.462,0-13.621-5.611-13.621-12.604c0-6.818,3.328-10.703,11.022-12.429l11.751-2.677c4.679-1.035,5.302-2.846,5.302-6.646
			c0-8.201-4.574-9.927-10.501-9.927c-9.151,0-11.854,4.748-11.854,10.963h-3.952c0-6.127,2.704-13.899,15.39-13.899
			c11.958,0,14.869,5.436,14.869,11.913V471.774z M415.137,450.882h-0.207c-1.351,1.811-2.808,2.071-6.864,3.021l-8.006,1.814
			c-6.343,1.467-8.631,4.576-8.631,9.924c0,5.871,3.12,9.668,9.982,9.668c9.254,0,13.725-6.04,13.725-15.104V450.882z"/>
		<path fill="#757006" d="M461.414,415.574l32.34,55.938h0.209v-55.938h4.367v61.636h-5.721l-32.442-55.94h-0.209v55.94h-4.367
			v-61.636H461.414z"/>
		<path fill="#757006" d="M538.472,471.774c0,2.155,1.038,3.018,2.392,3.018c0.937,0,1.766-0.085,2.494-0.429v2.587
			c-0.83,0.519-2.392,0.779-4.158,0.779c-1.664,0-4.68-1.382-4.68-4.923v-2.847h-0.206c-1.563,4.66-6.968,8.285-14.246,8.285
			c-9.462,0-13.623-5.611-13.623-12.604c0-6.818,3.326-10.703,11.022-12.429l11.752-2.677c4.677-1.035,5.301-2.846,5.301-6.646
			c0-8.201-4.573-9.927-10.503-9.927c-9.151,0-11.854,4.748-11.854,10.963h-3.949c0-6.127,2.703-13.899,15.389-13.899
			c11.958,0,14.87,5.436,14.87,11.913V471.774z M534.52,450.882h-0.206c-1.354,1.811-2.81,2.071-6.866,3.021l-8.006,1.814
			c-6.342,1.467-8.629,4.576-8.629,9.924c0,5.871,3.12,9.668,9.983,9.668c9.253,0,13.724-6.04,13.724-15.104V450.882z"/>
		<path fill="#757006" d="M545.237,432.063h7.38v-13.38h3.952v13.38h9.047v2.937h-9.047v34.789c0,4.316,2.497,5.004,4.782,5.004
			c1.664,0,3.12-0.085,4.889-0.516v2.934c-1.978,0.344-4.054,0.519-5.617,0.519c-5.614,0-8.006-2.677-8.006-7.597v-35.133h-7.38
			V432.063z"/>
		<path fill="#757006" d="M602.633,477.21h-3.949v-6.818h-0.209c-1.873,3.972-6.446,7.854-13.828,7.854
			c-7.696,0-13.727-3.625-13.727-12.173v-34.01h3.952v32.458c0,8.026,4.054,10.788,10.813,10.788
			c8.319,0,12.999-6.471,12.999-14.328v-28.918h3.949V477.21z"/>
		<path fill="#757006" d="M613.246,432.063h3.949v7.856h0.209c1.975-5.179,6.449-8.895,13.623-8.895h2.288v2.937h-2.288
			c-9.256,0-13.831,7.165-13.831,14.59v28.659h-3.949V432.063z"/>
		<path fill="#757006" d="M667.527,471.774c0,2.155,1.038,3.018,2.39,3.018c0.937,0,1.769-0.085,2.496-0.429v2.587
			c-0.832,0.519-2.392,0.779-4.158,0.779c-1.664,0-4.683-1.382-4.683-4.923v-2.847h-0.206c-1.56,4.66-6.965,8.285-14.246,8.285
			c-9.462,0-13.623-5.611-13.623-12.604c0-6.818,3.329-10.703,11.024-12.429l11.75-2.677c4.68-1.035,5.301-2.846,5.301-6.646
			c0-8.201-4.573-9.927-10.5-9.927c-9.151,0-11.854,4.748-11.854,10.963h-3.952c0-6.127,2.706-13.899,15.389-13.899
			c11.961,0,14.872,5.436,14.872,11.913V471.774z M663.572,450.882h-0.206c-1.351,1.811-2.807,2.071-6.864,3.021l-8.006,1.814
			c-6.342,1.467-8.632,4.576-8.632,9.924c0,5.871,3.12,9.668,9.983,9.668c9.256,0,13.724-6.04,13.724-15.104V450.882z"/>
		<path fill="#757006" d="M679.178,415.574h3.949v61.636h-3.949V415.574z"/>
	</g>
	<g>
		<path fill="#757006" d="M88.473,47.512C75.07-7.613,0,0.407,0,0.407s14.112,8.287,17.472,31.46
			c2.212,15.259,12.444,57.599,71.002,55.162C88.473,87.029,93.615,68.663,88.473,47.512z M28.628,14.852
			c36.416,6.621,55.544,62.533,55.544,62.533C71.665,50.532,28.628,14.852,28.628,14.852z"/>
		<path fill="#757006" d="M97.708,58.268c-3.624,14.912,0,27.857,0,27.857c41.287,1.719,48.499-28.131,50.059-38.886
			c2.37-16.342,12.318-22.18,12.318-22.18S107.157,19.4,97.708,58.268z M102.926,80.026c0,0,9.547-35.086,31.652-40.584
			C134.577,39.442,109.552,63.043,102.926,80.026z"/>
	</g>
</g>
</svg>
