<?xml version="1.0" encoding="utf-8"?>
<!-- Generator: Adobe Illustrator 17.0.0, SVG Export Plug-In . SVG Version: 6.00 Build 0)  -->
<!DOCTYPE svg PUBLIC "-//W3C//DTD SVG 1.1//EN" "http://www.w3.org/Graphics/SVG/1.1/DTD/svg11.dtd">
<svg version="1.1" id="Capa_1" xmlns="http://www.w3.org/2000/svg" xmlns:xlink="http://www.w3.org/1999/xlink" x="0px" y="0px"
	 width="120px" height="110px" viewBox="0 0 120 110" enable-background="new 0 0 120 110" xml:space="preserve">
<path fill="#DBDBDB" d="M120,4.402v101.197c0,1.202-0.417,2.234-1.25,3.1c-0.833,0.869-1.886,1.302-3.151,1.302H4.402
	c-1.202,0-2.237-0.433-3.103-1.302C0.433,107.833,0,106.8,0,105.599V4.402c0-1.202,0.433-2.234,1.299-3.1S3.2,0,4.402,0h111.197
	c1.265,0,2.318,0.436,3.151,1.302C119.583,2.168,120,3.2,120,4.402z M110,10H10v73.698l24.7-18.196L64.498,78.6L57.1,63.002
	l29.3-31.804L110,60V10z M43.701,25.501c2.598,2.598,3.9,5.768,3.9,9.499c0,3.734-1.302,6.901-3.9,9.498
	c-2.601,2.6-5.768,3.9-9.501,3.9c-3.734,0-6.898-1.3-9.499-3.9c-2.6-2.597-3.899-5.765-3.899-9.498c0-3.731,1.299-6.901,3.899-9.499
	c2.602-2.6,5.766-3.899,9.499-3.899C37.933,21.602,41.099,22.901,43.701,25.501z"/>
</svg>
